<svg width="75" height="19" viewBox="0 0 75 19" fill="none" xmlns="http://www.w3.org/2000/svg">
<path d="M0.883072 18.709V1.37962H7.38158C8.71288 1.37962 9.82981 1.62783 10.7324 2.12424C11.6406 2.62066 12.326 3.30323 12.7885 4.17195C13.2568 5.03503 13.4909 6.01658 13.4909 7.11659C13.4909 8.22788 13.2568 9.21507 12.7885 10.0781C12.3203 10.9412 11.6293 11.621 10.7155 12.1174C9.8016 12.6082 8.67621 12.8536 7.33927 12.8536H3.03232V10.2728H6.9162C7.69466 10.2728 8.3321 10.1374 8.82852 9.86661C9.32493 9.59584 9.6916 9.22353 9.92853 8.74968C10.1711 8.27583 10.2924 7.73146 10.2924 7.11659C10.2924 6.50171 10.1711 5.96017 9.92853 5.49196C9.6916 5.02375 9.32211 4.6599 8.82006 4.40041C8.32364 4.13528 7.68338 4.00272 6.89927 4.00272H4.02233V18.709H0.883072ZM14.2951 18.709V5.71196H17.2652V7.87813H17.4005C17.6375 7.12787 18.0436 6.54966 18.619 6.1435C19.2 5.73171 19.8629 5.52581 20.6075 5.52581C20.7767 5.52581 20.9657 5.53427 21.1744 5.55119C21.3888 5.56247 21.5665 5.58222 21.7075 5.61042V8.42814C21.5778 8.38301 21.3719 8.34352 21.0898 8.30967C20.8134 8.27019 20.5454 8.25044 20.286 8.25044C19.7275 8.25044 19.2254 8.37173 18.7798 8.61429C18.3398 8.85122 17.9929 9.18122 17.739 9.6043C17.4852 10.0274 17.3582 10.5153 17.3582 11.0682V18.709H14.2951ZM27.0895 18.9628C25.8203 18.9628 24.7203 18.6836 23.7895 18.1251C22.8587 17.5667 22.1366 16.7854 21.6233 15.7813C21.1156 14.7772 20.8618 13.6038 20.8618 12.2612C20.8618 10.9187 21.1156 9.74251 21.6233 8.73275C22.1366 7.723 22.8587 6.93889 23.7895 6.38043C24.7203 5.82196 25.8203 5.54273 27.0895 5.54273C28.3587 5.54273 29.4587 5.82196 30.3895 6.38043C31.3203 6.93889 32.0395 7.723 32.5472 8.73275C33.0606 9.74251 33.3172 10.9187 33.3172 12.2612C33.3172 13.6038 33.0606 14.7772 32.5472 15.7813C32.0395 16.7854 31.3203 17.5667 30.3895 18.1251C29.4587 18.6836 28.3587 18.9628 27.0895 18.9628ZM27.1064 16.509C27.7946 16.509 28.37 16.32 28.8326 15.942C29.2952 15.5584 29.6393 15.0451 29.8649 14.402C30.0962 13.7589 30.2118 13.0425 30.2118 12.2528C30.2118 11.4574 30.0962 10.7382 29.8649 10.0951C29.6393 9.44635 29.2952 8.93019 28.8326 8.5466C28.37 8.16301 27.7946 7.97121 27.1064 7.97121C26.4013 7.97121 25.8146 8.16301 25.3464 8.5466C24.8838 8.93019 24.5369 9.44635 24.3056 10.0951C24.08 10.7382 23.9672 11.4574 23.9672 12.2528C23.9672 13.0425 24.08 13.7589 24.3056 14.402C24.5369 15.0451 24.8838 15.5584 25.3464 15.942C25.8146 16.32 26.4013 16.509 27.1064 16.509ZM35.1877 1.37962L39.6977 15.0197H39.8754L44.377 1.37962H47.8293L41.72 18.709H37.8446L31.7438 1.37962H35.1877ZM48.1894 18.709V5.71196H51.2525V18.709H48.1894ZM49.7294 3.86733C49.2442 3.86733 48.8268 3.70656 48.477 3.38502C48.1273 3.05784 47.9524 2.66578 47.9524 2.20886C47.9524 1.74629 48.1273 1.35424 48.477 1.0327C48.8268 0.705514 49.2442 0.541923 49.7294 0.541923C50.2201 0.541923 50.6376 0.705514 50.9817 1.0327C51.3314 1.35424 51.5063 1.74629 51.5063 2.20886C51.5063 2.66578 51.3314 3.05784 50.9817 3.38502C50.6376 3.70656 50.2201 3.86733 49.7294 3.86733ZM59.1052 5.71196V8.08121H51.6336V5.71196H59.1052ZM53.4783 2.59809H56.5414V14.7997C56.5414 15.2115 56.6034 15.5274 56.7275 15.7474C56.8573 15.9618 57.0265 16.1085 57.2352 16.1874C57.4439 16.2664 57.6752 16.3059 57.9291 16.3059C58.1209 16.3059 58.2958 16.2918 58.4537 16.2636C58.6173 16.2354 58.7414 16.21 58.826 16.1874L59.3422 18.5821C59.1786 18.6385 58.9445 18.7005 58.6399 18.7682C58.3409 18.8359 57.9742 18.8754 57.5398 18.8867C56.7727 18.9092 56.0816 18.7936 55.4668 18.5398C54.8519 18.2803 54.3639 17.8797 54.0029 17.3382C53.6475 16.7967 53.4726 16.1197 53.4783 15.3074V2.59809ZM63.6199 18.9713C62.7963 18.9713 62.0545 18.8246 61.3945 18.5313C60.7402 18.2323 60.2212 17.7923 59.8376 17.2113C59.4596 16.6303 59.2707 15.9138 59.2707 15.062C59.2707 14.3287 59.4061 13.7223 59.6768 13.2428C59.9476 12.7633 60.3171 12.3797 60.7853 12.092C61.2535 11.8043 61.7809 11.5871 62.3676 11.4405C62.9599 11.2882 63.572 11.1782 64.2038 11.1105C64.9653 11.0315 65.583 10.961 66.0569 10.8989C66.5307 10.8312 66.8748 10.7297 67.0892 10.5943C67.3092 10.4533 67.4192 10.2361 67.4192 9.94276V9.89199C67.4192 9.25455 67.2302 8.76096 66.8523 8.41121C66.4743 8.06147 65.9299 7.88659 65.2192 7.88659C64.4689 7.88659 63.8738 8.05019 63.4338 8.37737C62.9994 8.70455 62.7061 9.09096 62.5538 9.53661L59.6937 9.13045C59.9194 8.3407 60.2917 7.6807 60.8107 7.15043C61.3297 6.61453 61.9643 6.21402 62.7145 5.94889C63.4648 5.67812 64.294 5.54273 65.2023 5.54273C65.8284 5.54273 66.4517 5.61606 67.0723 5.76273C67.6928 5.9094 68.2597 6.15197 68.773 6.49043C69.2864 6.82325 69.6982 7.27736 70.0084 7.85275C70.3243 8.42814 70.4823 9.14737 70.4823 10.0105V18.709H67.5377V16.9236H67.4361C67.25 17.2846 66.9877 17.6231 66.6492 17.939C66.3164 18.2492 65.8961 18.5003 65.3884 18.6921C64.8864 18.8782 64.2969 18.9713 63.6199 18.9713ZM64.4153 16.7205C65.0302 16.7205 65.5633 16.5992 66.0146 16.3567C66.4659 16.1085 66.8128 15.7813 67.0553 15.3751C67.3035 14.969 67.4277 14.5261 67.4277 14.0466V12.5151C67.3318 12.5941 67.1682 12.6674 66.9369 12.7351C66.7112 12.8028 66.4574 12.862 66.1753 12.9128C65.8933 12.9636 65.614 13.0087 65.3376 13.0482C65.0612 13.0877 64.8215 13.1215 64.6184 13.1497C64.1615 13.2118 63.7525 13.3133 63.3915 13.4543C63.0304 13.5954 62.7456 13.7928 62.5368 14.0466C62.3281 14.2948 62.2238 14.6164 62.2238 15.0113C62.2238 15.5754 62.4297 16.0013 62.8415 16.289C63.2533 16.5767 63.7779 16.7205 64.4153 16.7205ZM74.8383 1.37962V18.709H71.7752V1.37962H74.8383Z" fill="black"/>
</svg>
